<mxfile host="app.diagrams.net" modified="2023-08-24T17:13:59.697Z" agent="Mozilla/5.0 (Windows NT 10.0; Win64; x64) AppleWebKit/537.36 (KHTML, like Gecko) Chrome/115.0.0.0 Safari/537.36" version="21.6.8" etag="UQQjvKyVaB1bQcIFHL7r" type="github">
  <diagram name="PÃ¡gina-1" id="nFpaF7s9Qfsoru6N3irY">
    <mxGraphModel>
      <root>
        <mxCell id="0" />
        <mxCell id="1" parent="0" />
      </root>
    </mxGraphModel>
  </diagram>
</mxfile>
